<svg width="200" height="100" xmlns="http://www.w3.org/2000/svg" viewBox="0 0 200 100" fill="currentColor" shape-rendering="crispEdges"><path d="M0 0h45v1h-45zM54 0h146v1h-146zM0 1h38v1h-38zM60 1h19v1h-19zM80 1h116v1h-116zM197 1h3v1h-3zM0 2h35v1h-35zM64 2h15v1h-15zM82 2h113v1h-113zM197 2h3v1h-3zM0 3h32v1h-32zM67 3h12v1h-12zM83 3h111v1h-111zM197 3h3v1h-3zM0 4h29v1h-29zM69 4h10v1h-10zM84 4h108v1h-108zM197 4h3v1h-3zM0 5h27v1h-27zM71 5h8v1h-8zM85 5h106v1h-106zM197 5h3v1h-3zM0 6h25v1h-25zM73 6h6v1h-6zM87 6h103v1h-103zM197 6h3v1h-3zM0 7h24v1h-24zM75 7h4v1h-4zM88 7h101v1h-101zM197 7h3v1h-3zM0 8h22v1h-22zM77 8h2v1h-2zM89 8h99v1h-99zM197 8h3v1h-3zM0 9h21v1h-21zM78 9h1v1h-1zM90 9h96v1h-96zM197 9h3v1h-3zM0 10h19v1h-19zM92 10h93v1h-93zM197 10h3v1h-3zM0 11h18v1h-18zM93 11h91v1h-91zM197 11h3v1h-3zM0 12h17v1h-17zM94 12h89v1h-89zM197 12h3v1h-3zM0 13h16v1h-16zM95 13h86v1h-86zM197 13h3v1h-3zM0 14h15v1h-15zM96 14h84v1h-84zM197 14h3v1h-3zM0 15h14v1h-14zM98 15h81v1h-81zM197 15h3v1h-3zM0 16h13v1h-13zM99 16h79v1h-79zM197 16h3v1h-3zM0 17h12v1h-12zM100 17h76v1h-76zM197 17h3v1h-3zM0 18h11v1h-11zM55 18h2v1h-2zM101 18h74v1h-74zM197 18h3v1h-3zM0 19h10v1h-10zM54 19h3v1h-3zM103 19h71v1h-71zM197 19h3v1h-3zM0 20h10v1h-10zM53 20h4v1h-4zM104 20h69v1h-69zM197 20h3v1h-3zM0 21h9v1h-9zM52 21h5v1h-5zM105 21h67v1h-67zM197 21h3v1h-3zM0 22h8v1h-8zM50 22h7v1h-7zM106 22h64v1h-64zM197 22h3v1h-3zM0 23h8v1h-8zM49 23h8v1h-8zM108 23h61v1h-61zM197 23h3v1h-3zM0 24h7v1h-7zM48 24h9v1h-9zM109 24h59v1h-59zM197 24h3v1h-3zM0 25h6v1h-6zM47 25h10v1h-10zM110 25h57v1h-57zM197 25h3v1h-3zM0 26h6v1h-6zM46 26h11v1h-11zM111 26h54v1h-54zM197 26h3v1h-3zM0 27h5v1h-5zM45 27h12v1h-12zM112 27h52v1h-52zM197 27h3v1h-3zM0 28h5v1h-5zM43 28h14v1h-14zM114 28h49v1h-49zM197 28h3v1h-3zM0 29h4v1h-4zM42 29h15v1h-15zM115 29h47v1h-47zM197 29h3v1h-3zM0 30h4v1h-4zM41 30h16v1h-16zM116 30h44v1h-44zM197 30h3v1h-3zM0 31h4v1h-4zM40 31h17v1h-17zM117 31h42v1h-42zM197 31h3v1h-3zM0 32h3v1h-3zM39 32h40v1h-40zM119 32h39v1h-39zM197 32h3v1h-3zM0 33h3v1h-3zM38 33h41v1h-41zM120 33h37v1h-37zM197 33h3v1h-3zM0 34h2v1h-2zM36 34h43v1h-43zM121 34h35v1h-35zM197 34h3v1h-3zM0 35h2v1h-2zM35 35h44v1h-44zM122 35h32v1h-32zM197 35h3v1h-3zM0 36h2v1h-2zM34 36h45v1h-45zM124 36h29v1h-29zM197 36h3v1h-3zM0 37h2v1h-2zM33 37h46v1h-46zM125 37h27v1h-27zM197 37h3v1h-3zM0 38h1v1h-1zM32 38h47v1h-47zM126 38h25v1h-25zM197 38h3v1h-3zM0 39h1v1h-1zM31 39h48v1h-48zM127 39h22v1h-22zM197 39h3v1h-3zM0 40h1v1h-1zM29 40h50v1h-50zM128 40h20v1h-20zM197 40h3v1h-3zM0 41h1v1h-1zM28 41h51v1h-51zM130 41h17v1h-17zM197 41h3v1h-3zM0 42h1v1h-1zM27 42h52v1h-52zM131 42h15v1h-15zM197 42h3v1h-3zM0 43h1v1h-1zM26 43h53v1h-53zM132 43h12v1h-12zM197 43h3v1h-3zM25 44h54v1h-54zM133 44h10v1h-10zM197 44h3v1h-3zM24 45h55v1h-55zM135 45h7v1h-7zM197 45h3v1h-3zM23 46h56v1h-56zM136 46h5v1h-5zM197 46h3v1h-3zM21 47h58v1h-58zM137 47h3v1h-3zM197 47h3v1h-3zM20 48h59v1h-59zM197 48h3v1h-3zM19 49h60v2h-60zM197 49h3v2h-3zM20 51h59v1h-59zM197 51h3v1h-3zM21 52h58v1h-58zM197 52h3v1h-3zM23 53h56v1h-56zM197 53h3v1h-3zM24 54h55v1h-55zM197 54h3v1h-3zM0 55h1v1h-1zM25 55h54v1h-54zM197 55h3v1h-3zM0 56h1v1h-1zM26 56h53v1h-53zM197 56h3v1h-3zM0 57h1v1h-1zM27 57h52v1h-52zM197 57h3v1h-3zM0 58h1v1h-1zM28 58h51v1h-51zM197 58h3v1h-3zM0 59h1v1h-1zM30 59h49v1h-49zM197 59h3v1h-3zM0 60h1v1h-1zM31 60h48v1h-48zM197 60h3v1h-3zM0 61h2v1h-2zM32 61h47v1h-47zM197 61h3v1h-3zM0 62h2v1h-2zM33 62h46v1h-46zM197 62h3v1h-3zM0 63h2v1h-2zM34 63h45v1h-45zM197 63h3v1h-3zM0 64h3v1h-3zM35 64h44v1h-44zM197 64h3v1h-3zM0 65h3v1h-3zM36 65h43v1h-43zM197 65h3v1h-3zM0 66h3v1h-3zM38 66h41v1h-41zM197 66h3v1h-3zM0 67h4v1h-4zM39 67h40v1h-40zM197 67h3v1h-3zM0 68h4v1h-4zM40 68h17v1h-17zM197 68h3v1h-3zM0 69h5v1h-5zM41 69h16v1h-16zM197 69h3v1h-3zM0 70h5v1h-5zM42 70h15v1h-15zM197 70h3v1h-3zM0 71h6v1h-6zM43 71h14v1h-14zM197 71h3v1h-3zM0 72h6v1h-6zM45 72h12v1h-12zM197 72h3v1h-3zM0 73h7v1h-7zM46 73h11v1h-11zM197 73h3v1h-3zM0 74h7v1h-7zM47 74h10v1h-10zM197 74h3v1h-3zM0 75h8v1h-8zM48 75h9v1h-9zM197 75h3v1h-3zM0 76h8v1h-8zM49 76h8v1h-8zM197 76h3v1h-3zM0 77h9v1h-9zM50 77h7v1h-7zM197 77h3v1h-3zM0 78h10v1h-10zM52 78h5v1h-5zM197 78h3v1h-3zM0 79h11v1h-11zM53 79h4v1h-4zM197 79h3v1h-3zM0 80h11v1h-11zM54 80h3v1h-3zM197 80h3v1h-3zM0 81h12v1h-12zM55 81h2v1h-2zM197 81h3v1h-3zM0 82h13v1h-13zM197 82h3v1h-3zM0 83h14v1h-14zM197 83h3v1h-3zM0 84h15v1h-15zM197 84h3v1h-3zM0 85h16v1h-16zM197 85h3v1h-3zM0 86h17v1h-17zM197 86h3v1h-3zM0 87h18v1h-18zM197 87h3v1h-3zM0 88h20v1h-20zM197 88h3v1h-3zM0 89h21v1h-21zM78 89h1v1h-1zM197 89h3v1h-3zM0 90h23v1h-23zM76 90h3v1h-3zM197 90h3v1h-3zM0 91h24v1h-24zM75 91h4v1h-4zM197 91h3v1h-3zM0 92h26v1h-26zM73 92h6v1h-6zM197 92h3v1h-3zM0 93h28v1h-28zM71 93h8v1h-8zM197 93h3v1h-3zM0 94h30v1h-30zM69 94h10v1h-10zM197 94h3v1h-3zM0 95h32v1h-32zM66 95h13v1h-13zM197 95h3v1h-3zM0 96h35v1h-35zM63 96h16v1h-16zM197 96h3v1h-3zM0 97h40v1h-40zM59 97h20v1h-20zM197 97h3v1h-3zM0 98h200v2h-200z"></path></svg>